# xmcd
#
# Track frame offsets: 
#        150
#        35577
#        53642
#        101012
#        114057
#        150925
#        166687
#
# Disc length: 2463 seconds
#
# Revision: 2
# Processed by: cddbd v1.5.2PL0 Copyright (c) Steve Scherf et al.
# Submitted via: ExactAudioCopyFreeDBPlugin 1.0
#
DISCID=41099d07
DTITLE=Stevie Ray Vaughan - First Concert in Europe (LU-DE TSP-CD-188)
DYEAR=1995
DGENRE=Rock
TTITLE0=R and B Medley: Hideaway, Rude Mood
TTITLE1=Pride And Joy
TTITLE2=Texas Flood
TTITLE3=Love Struck Baby
TTITLE4=Dirty Pool
TTITLE5=Give Me Back My Wig
TTITLE6=Stevie's Boogie
EXTD=
EXTT0=
EXTT1=
EXTT2=
EXTT3=
EXTT4=
EXTT5=
EXTT6=
PLAYORDER=
